<svg width="17" height="16" viewBox="0 0 17 16" fill="none" xmlns="http://www.w3.org/2000/svg">
<path d="M15.168 3.83333V2.16667C15.168 1.2475 14.4205 0.5 13.5013 0.5H2.66797C1.28964 0.5 0.167969 1.62167 0.167969 3V13C0.167969 14.8342 1.66297 15.5 2.66797 15.5H15.168C16.0871 15.5 16.8346 14.7525 16.8346 13.8333V5.5C16.8346 4.58083 16.0871 3.83333 15.168 3.83333ZM13.5013 11.3333H11.8346V8H13.5013V11.3333ZM2.66797 3.83333C2.4534 3.82374 2.25081 3.73174 2.10237 3.57651C1.95392 3.42129 1.87108 3.21478 1.87108 3C1.87108 2.78522 1.95392 2.57871 2.10237 2.42349C2.25081 2.26826 2.4534 2.17626 2.66797 2.16667H13.5013V3.83333H2.66797Z" fill="black"/>
</svg>
