<svg width="367" height="127" viewBox="0 0 367 127" fill="none" xmlns="http://www.w3.org/2000/svg">
<path d="M162.448 123.45H54.5735C53.5067 123.45 52.6484 124.247 52.6484 125.221C52.6484 126.202 53.5147 126.991 54.5735 126.991H162.448C163.515 126.991 164.373 126.195 164.373 125.221C164.381 124.247 163.515 123.45 162.448 123.45Z" fill="url(#paint0_linear_156_182)"/>
<path d="M364.085 12.4033H102.736C101.669 12.4033 100.811 13.1928 100.811 14.1742C100.811 15.1555 101.677 15.945 102.736 15.945H362.152V80.1823L324.758 114.588H286.457C285.391 114.588 284.532 115.385 284.532 116.359C284.532 117.34 285.399 118.13 286.457 118.13H325.552C326.065 118.13 326.554 117.946 326.915 117.613L365.44 82.1745C365.801 81.8425 366.002 81.3924 366.002 80.9202V14.1742C366.01 13.2002 365.144 12.4033 364.085 12.4033Z" fill="url(#paint1_linear_156_182)"/>
<path d="M206.118 3.54168H313.993C315.06 3.54168 315.918 2.75218 315.918 1.77084C315.918 0.7895 315.06 0 313.993 0H206.118C205.052 0 204.193 0.7895 204.193 1.77084C204.193 2.75218 205.06 3.54168 206.118 3.54168Z" fill="url(#paint2_linear_156_182)"/>
<path d="M3.88218 114.596C3.86614 114.596 3.8501 114.581 3.8501 114.566V50.3657C3.8501 50.3584 3.8501 50.351 3.85812 50.3436L41.2361 15.9598C41.2442 15.9598 41.2522 15.9524 41.2602 15.9524H61H70.6813H72.47C73.4967 15.9524 74.4352 15.2736 74.5234 14.3365C74.6197 13.2887 73.7213 12.4033 72.6064 12.4033H40.4501C39.9367 12.4033 39.4474 12.5878 39.0865 12.9198L0.561472 48.3662C0.200526 48.6982 0 49.1483 0 49.6205V116.337C0 117.333 0.874292 118.137 1.95713 118.137H250.834C251.901 118.137 252.759 117.34 252.759 116.367C252.759 115.385 251.893 114.596 250.834 114.596H3.88218Z" fill="url(#paint3_linear_156_182)"/>
<defs>
<linearGradient id="paint0_linear_156_182" x1="108.511" y1="123.45" x2="108.511" y2="126.991" gradientUnits="userSpaceOnUse">
<stop offset="0.00520833" stop-color="#E1CEAC"/>
<stop offset="0.322917" stop-color="#F9D390"/>
<stop offset="0.765625" stop-color="#E2B15B"/>
<stop offset="0.984375" stop-color="#E0DAD0"/>
</linearGradient>
<linearGradient id="paint1_linear_156_182" x1="233.406" y1="12.4033" x2="233.406" y2="118.13" gradientUnits="userSpaceOnUse">
<stop offset="0.00520833" stop-color="#E1CEAC"/>
<stop offset="0.322917" stop-color="#F9D390"/>
<stop offset="0.765625" stop-color="#E2B15B"/>
<stop offset="0.984375" stop-color="#E0DAD0"/>
</linearGradient>
<linearGradient id="paint2_linear_156_182" x1="260.056" y1="0" x2="260.056" y2="3.54168" gradientUnits="userSpaceOnUse">
<stop offset="0.00520833" stop-color="#E1CEAC"/>
<stop offset="0.322917" stop-color="#F9D390"/>
<stop offset="0.765625" stop-color="#E2B15B"/>
<stop offset="0.984375" stop-color="#E0DAD0"/>
</linearGradient>
<linearGradient id="paint3_linear_156_182" x1="126.379" y1="12.4033" x2="126.379" y2="118.137" gradientUnits="userSpaceOnUse">
<stop offset="0.00520833" stop-color="#E1CEAC"/>
<stop offset="0.322917" stop-color="#F9D390"/>
<stop offset="0.765625" stop-color="#E2B15B"/>
<stop offset="0.984375" stop-color="#E0DAD0"/>
</linearGradient>
</defs>
</svg>
