<svg width="314" height="52" viewBox="0 0 314 52" fill="none" xmlns="http://www.w3.org/2000/svg">
<mask id="path-1-inside-1_186_880" fill="white">
<path fill-rule="evenodd" clip-rule="evenodd" d="M0 51.431V8.80257L8.99212 0H314V43.1005L305.49 51.431H0Z"/>
</mask>
<path d="M0 8.80257L-0.699535 8.08797L-1 8.3821V8.80257H0ZM0 51.431H-1V52.431H0V51.431ZM8.99212 0V-1H8.58413L8.29258 -0.714598L8.99212 0ZM314 0H315V-1H314V0ZM314 43.1005L314.7 43.8151L315 43.5209V43.1005H314ZM305.49 51.431V52.431H305.898L306.19 52.1456L305.49 51.431ZM-1 8.80257V51.431H1V8.80257H-1ZM8.29258 -0.714598L-0.699535 8.08797L0.699535 9.51717L9.69165 0.714598L8.29258 -0.714598ZM314 -1H8.99212V1H314V-1ZM315 43.1005V0H313V43.1005H315ZM306.19 52.1456L314.7 43.8151L313.3 42.3859L304.791 50.7164L306.19 52.1456ZM0 52.431H305.49V50.431H0V52.431Z" fill="url(#paint0_linear_186_880)" mask="url(#path-1-inside-1_186_880)"/>
<defs>
<linearGradient id="paint0_linear_186_880" x1="157" y1="0" x2="157" y2="51.431" gradientUnits="userSpaceOnUse">
<stop stop-color="#F9D390"/>
<stop offset="1" stop-color="#E2B15B"/>
</linearGradient>
</defs>
</svg>
