<svg width="272" height="72" viewBox="0 0 272 72" fill="none" xmlns="http://www.w3.org/2000/svg">
<path d="M93.1406 10.6021C93.9691 10.6021 94.6406 9.93048 94.6406 9.10205C94.6406 8.27362 93.9691 7.60205 93.1406 7.60205V10.6021ZM17.3868 7.60205C16.5583 7.60205 15.8868 8.27362 15.8868 9.10205C15.8868 9.93048 16.5583 10.6021 17.3868 10.6021V7.60205ZM93.1406 7.60205L17.3868 7.60205V10.6021L93.1406 10.6021V7.60205Z" fill="url(#paint0_linear_156_171)"/>
<path d="M172.445 10.6021C173.274 10.6021 173.945 9.93048 173.945 9.10205C173.945 8.27362 173.274 7.60205 172.445 7.60205V10.6021ZM99.0588 7.60205C98.2303 7.60205 97.5588 8.27362 97.5588 9.10205C97.5588 9.93048 98.2303 10.6021 99.0588 10.6021V7.60205ZM172.445 7.60205L99.0588 7.60205V10.6021L172.445 10.6021V7.60205Z" fill="url(#paint1_linear_156_171)"/>
<path d="M18.6368 10.1993C19.2226 9.61355 19.2226 8.6638 18.6368 8.07801C18.051 7.49223 17.1013 7.49223 16.5155 8.07801L18.6368 10.1993ZM3.53567 21.0579C2.94988 21.6436 2.94988 22.5934 3.53567 23.1792C4.12146 23.765 5.0712 23.765 5.65699 23.1792L3.53567 21.0579ZM16.5155 8.07801L3.53567 21.0579L5.65699 23.1792L18.6368 10.1993L16.5155 8.07801Z" fill="url(#paint2_linear_156_171)"/>
<path d="M90.7734 3.5C91.6019 3.5 92.2734 2.82843 92.2734 2C92.2734 1.17157 91.6019 0.5 90.7734 0.5V3.5ZM15.0196 0.5C14.1911 0.5 13.5196 1.17157 13.5196 2C13.5196 2.82843 14.1911 3.5 15.0196 3.5V0.5ZM90.7734 0.5L15.0196 0.5V3.5L90.7734 3.5V0.5Z" fill="url(#paint3_linear_156_171)"/>
<path d="M16.0411 3.06066C16.6269 2.47487 16.6269 1.52513 16.0411 0.93934C15.4553 0.353553 14.5056 0.353553 13.9198 0.93934L16.0411 3.06066ZM0.939967 13.9192C0.354181 14.505 0.354181 15.4547 0.939967 16.0405C1.52575 16.6263 2.4755 16.6263 3.06129 16.0405L0.939967 13.9192ZM13.9198 0.93934L0.939967 13.9192L3.06129 16.0405L16.0411 3.06066L13.9198 0.93934Z" fill="url(#paint4_linear_156_171)"/>
<path d="M178.363 62.249C177.535 62.249 176.863 62.9206 176.863 63.749C176.863 64.5775 177.535 65.249 178.363 65.249L178.363 62.249ZM254.117 65.249C254.946 65.249 255.617 64.5775 255.617 63.749C255.617 62.9206 254.946 62.249 254.117 62.249L254.117 65.249ZM178.363 65.249L254.117 65.249L254.117 62.249L178.363 62.249L178.363 65.249Z" fill="url(#paint5_linear_156_171)"/>
<path d="M97.875 62.249C97.0466 62.249 96.375 62.9206 96.375 63.749C96.375 64.5775 97.0466 65.249 97.875 65.249L97.875 62.249ZM172.445 65.249C173.274 65.249 173.945 64.5775 173.945 63.749C173.945 62.9206 173.274 62.249 172.445 62.249L172.445 65.249ZM97.875 65.249L172.445 65.249L172.445 62.249L97.875 62.249L97.875 65.249Z" fill="url(#paint6_linear_156_171)"/>
<path d="M252.869 62.4491C252.283 63.0349 252.283 63.9846 252.869 64.5704C253.455 65.1562 254.405 65.1562 254.99 64.5704L252.869 62.4491ZM267.97 51.5906C268.556 51.0048 268.556 50.0551 267.97 49.4693C267.384 48.8835 266.435 48.8835 265.849 49.4693L267.97 51.5906ZM254.99 64.5704L267.97 51.5906L265.849 49.4693L252.869 62.4491L254.99 64.5704Z" fill="url(#paint7_linear_156_171)"/>
<path d="M180.73 68.167C179.902 68.167 179.23 68.8386 179.23 69.667C179.23 70.4954 179.902 71.167 180.73 71.167L180.73 68.167ZM256.484 71.167C257.313 71.167 257.984 70.4954 257.984 69.667C257.984 68.8386 257.313 68.167 256.484 68.167L256.484 71.167ZM180.73 71.167L256.484 71.167L256.484 68.167L180.73 68.167L180.73 71.167Z" fill="url(#paint8_linear_156_171)"/>
<path d="M255.465 68.9393C254.879 69.5251 254.879 70.4749 255.465 71.0607C256.051 71.6464 257 71.6464 257.586 71.0607L255.465 68.9393ZM270.566 58.0808C271.152 57.495 271.152 56.5453 270.566 55.9595C269.98 55.3737 269.03 55.3737 268.445 55.9595L270.566 58.0808ZM257.586 71.0607L270.566 58.0808L268.445 55.9595L255.465 68.9393L257.586 71.0607Z" fill="url(#paint9_linear_156_171)"/>
<defs>
<linearGradient id="paint0_linear_156_171" x1="55.2637" y1="9.10205" x2="55.2637" y2="8.10205" gradientUnits="userSpaceOnUse">
<stop stop-color="#F9D390"/>
<stop offset="1" stop-color="#E2B15B"/>
</linearGradient>
<linearGradient id="paint1_linear_156_171" x1="135.752" y1="9.10205" x2="135.752" y2="8.10205" gradientUnits="userSpaceOnUse">
<stop stop-color="#F9D390"/>
<stop offset="1" stop-color="#E2B15B"/>
</linearGradient>
<linearGradient id="paint2_linear_156_171" x1="11.0863" y1="15.6286" x2="10.3791" y2="14.9215" gradientUnits="userSpaceOnUse">
<stop stop-color="#F9D390"/>
<stop offset="1" stop-color="#E2B15B"/>
</linearGradient>
<linearGradient id="paint3_linear_156_171" x1="52.8965" y1="2" x2="52.8965" y2="1" gradientUnits="userSpaceOnUse">
<stop stop-color="#F9D390"/>
<stop offset="1" stop-color="#E2B15B"/>
</linearGradient>
<linearGradient id="paint4_linear_156_171" x1="8.49055" y1="8.48992" x2="7.78344" y2="7.78281" gradientUnits="userSpaceOnUse">
<stop stop-color="#F9D390"/>
<stop offset="1" stop-color="#E2B15B"/>
</linearGradient>
<linearGradient id="paint5_linear_156_171" x1="216.24" y1="63.749" x2="216.24" y2="64.749" gradientUnits="userSpaceOnUse">
<stop stop-color="#F9D390"/>
<stop offset="1" stop-color="#E2B15B"/>
</linearGradient>
<linearGradient id="paint6_linear_156_171" x1="135.16" y1="63.749" x2="135.16" y2="64.749" gradientUnits="userSpaceOnUse">
<stop stop-color="#F9D390"/>
<stop offset="1" stop-color="#E2B15B"/>
</linearGradient>
<linearGradient id="paint7_linear_156_171" x1="260.42" y1="57.0198" x2="261.127" y2="57.727" gradientUnits="userSpaceOnUse">
<stop stop-color="#F9D390"/>
<stop offset="1" stop-color="#E2B15B"/>
</linearGradient>
<linearGradient id="paint8_linear_156_171" x1="218.607" y1="69.667" x2="218.607" y2="70.667" gradientUnits="userSpaceOnUse">
<stop stop-color="#F9D390"/>
<stop offset="1" stop-color="#E2B15B"/>
</linearGradient>
<linearGradient id="paint9_linear_156_171" x1="263.015" y1="63.5101" x2="263.722" y2="64.2172" gradientUnits="userSpaceOnUse">
<stop stop-color="#F9D390"/>
<stop offset="1" stop-color="#E2B15B"/>
</linearGradient>
</defs>
</svg>
