<svg width="168" height="63" viewBox="0 0 168 63" fill="none" xmlns="http://www.w3.org/2000/svg">
<path d="M149.692 57.6936H2V24.5811C8.867 17.7141 12.7141 13.8633 19.5811 7H167.273V40.1124C160.406 46.9794 156.559 50.8266 149.692 57.6936Z" fill="url(#paint0_linear_186_859)"/>
<path d="M74.7739 61.2429H25.5445C25.0577 61.2429 24.666 61.6383 24.666 62.1214C24.666 62.6083 25.0613 62.9999 25.5445 62.9999H74.7739C75.2608 62.9999 75.6524 62.6046 75.6524 62.1214C75.6561 61.6383 75.2608 61.2429 74.7739 61.2429Z" fill="url(#paint1_linear_186_859)"/>
<path d="M166.79 6.15332H47.5211C47.0342 6.15332 46.6426 6.54499 46.6426 7.03183C46.6426 7.51867 47.0379 7.91034 47.5211 7.91034H165.907V39.7782L148.842 56.8469H131.364C130.877 56.8469 130.485 57.2422 130.485 57.7254C130.485 58.2122 130.881 58.6039 131.364 58.6039H149.205C149.439 58.6039 149.662 58.5124 149.827 58.3477L167.408 40.7665C167.573 40.6018 167.664 40.3785 167.664 40.1443V7.03183C167.668 6.54865 167.273 6.15332 166.79 6.15332Z" fill="url(#paint2_linear_186_859)"/>
<path d="M94.7008 1.75702H143.93C144.417 1.75702 144.809 1.36535 144.809 0.878508C144.809 0.391668 144.417 0 143.93 0H94.7008C94.2139 0 93.8223 0.391668 93.8223 0.878508C93.8223 1.36535 94.2176 1.75702 94.7008 1.75702Z" fill="url(#paint3_linear_186_859)"/>
<path d="M2.41033 56.8505C2.40301 56.8505 2.39569 56.8432 2.39569 56.8359V24.9863C2.39569 24.9827 2.39569 24.979 2.39935 24.9754L19.457 7.91766C19.4607 7.91766 19.4644 7.914 19.468 7.914H28.4764H32.8946H33.7108C34.1794 7.914 34.6076 7.57724 34.6479 7.11236C34.6918 6.59257 34.2819 6.15332 33.7731 6.15332H19.0983C18.8641 6.15332 18.6408 6.24483 18.476 6.40955L0.894903 23.9944C0.730183 24.1591 0.638672 24.3824 0.638672 24.6166V57.7144C0.638672 58.2086 1.03766 58.6076 1.53182 58.6076H115.108C115.595 58.6076 115.987 58.2122 115.987 57.7291C115.987 57.2422 115.591 56.8505 115.108 56.8505H2.41033Z" fill="url(#paint4_linear_186_859)"/>
<defs>
<linearGradient id="paint0_linear_186_859" x1="84.6365" y1="7" x2="84.6365" y2="57.6936" gradientUnits="userSpaceOnUse">
<stop/>
<stop offset="1" stop-color="#001734" stop-opacity="0.2"/>
</linearGradient>
<linearGradient id="paint1_linear_186_859" x1="50.1592" y1="61.2429" x2="50.1592" y2="62.9999" gradientUnits="userSpaceOnUse">
<stop stop-color="#F9D390"/>
<stop offset="1" stop-color="#E2B15B"/>
</linearGradient>
<linearGradient id="paint2_linear_186_859" x1="107.153" y1="6.15332" x2="107.153" y2="58.6039" gradientUnits="userSpaceOnUse">
<stop stop-color="#F9D390"/>
<stop offset="1" stop-color="#E2B15B"/>
</linearGradient>
<linearGradient id="paint3_linear_186_859" x1="119.315" y1="0" x2="119.315" y2="1.75702" gradientUnits="userSpaceOnUse">
<stop stop-color="#F9D390"/>
<stop offset="1" stop-color="#E2B15B"/>
</linearGradient>
<linearGradient id="paint4_linear_186_859" x1="58.3127" y1="6.15332" x2="58.3127" y2="58.6076" gradientUnits="userSpaceOnUse">
<stop stop-color="#F9D390"/>
<stop offset="1" stop-color="#E2B15B"/>
</linearGradient>
</defs>
</svg>
