<svg width="17" height="18" viewBox="0 0 17 18" fill="none" xmlns="http://www.w3.org/2000/svg">
<path fill-rule="evenodd" clip-rule="evenodd" d="M0.166748 3.14492C0.166748 2.48765 0.427849 1.85729 0.892612 1.39253C1.35738 0.927768 1.98773 0.666667 2.645 0.666667H7.74484C8.40149 0.666667 9.0323 0.927492 9.49729 1.39248L16.1071 8.00227C16.3373 8.23241 16.52 8.50567 16.6446 8.80644C16.7693 9.1072 16.8334 9.42957 16.8334 9.75513C16.8334 10.0807 16.7693 10.4031 16.6446 10.7038C16.52 11.0046 16.3373 11.2778 16.1071 11.508L11.0072 16.607C10.7771 16.8371 10.5039 17.0197 10.2032 17.1443C9.90253 17.2688 9.58026 17.3329 9.2548 17.3329C8.92933 17.3329 8.60706 17.2688 8.30637 17.1443C8.00569 17.0197 7.73248 16.8371 7.50235 16.607L0.892559 9.99721C0.662435 9.76707 0.479894 9.49386 0.355359 9.19317C0.230824 8.89249 0.166734 8.57022 0.166748 8.24476V3.14492ZM4.71077 6.44982C5.03941 6.44982 5.35459 6.31927 5.58697 6.08689C5.81935 5.8545 5.9499 5.53933 5.9499 5.21069C5.9499 4.88205 5.81935 4.56688 5.58697 4.33449C5.35459 4.10211 5.03941 3.97156 4.71077 3.97156C4.38213 3.97156 4.06696 4.10211 3.83458 4.33449C3.60219 4.56688 3.47164 4.88205 3.47164 5.21069C3.47164 5.53933 3.60219 5.8545 3.83458 6.08689C4.06696 6.31927 4.38213 6.44982 4.71077 6.44982Z" fill="black"/>
</svg>
